<?xml version="1.0" encoding="UTF-8" standalone="no"?> <svg id="Flat" height="64" viewBox="0 0 512 512" width="64" xmlns="http://www.w3.org/2000/svg"><g><path d="m401.951 288.975-97.951-48.975h-96l-97.951 48.975a40 40 0 0 0 -19.564 21.732l-42.485 113.293h56v64h304v-64h56l-42.485-113.293a40 40 0 0 0 -19.564-21.732z" fill="#25b1fa"/><path d="m421.515 310.708a40 40 0 0 0 -19.564-21.733l-97.951-48.975h-96l-97.951 48.975a40 40 0 0 0 -19.564 21.733l-42.485 113.292h32l37.34-97.083a20 20 0 0 1 9.185-10.43l97.475-52.487h64l97.475 52.487a20 20 0 0 1 9.185 10.43l37.34 97.083h32z" fill="#2471d6"/><path d="m256 272-32-24v96h64v-96z" fill="#f2fbff"/><path d="m248 256h16v88h-16z" fill="#b3e9ff"/><path d="m104 488h-36a20 20 0 0 1 -20-20v-44h56z" fill="#25b1fa"/><path d="m304 240-48 32-48-32 16-40h64z" fill="#ffd4cf"/><path d="m288 200h-64l-7.86 19.651 22 12.571a36 36 0 0 0 35.722 0l22-12.571z" fill="#fbb8b0"/><path d="m320 72h-128v-8a40 40 0 0 1 40-40h48a40 40 0 0 1 40 40z" fill="#fac850"/><path d="m326 120h-14v-15.592l-112-.408v16h-14a10 10 0 0 0 -10 10v20a10 10 0 0 0 10 10h14v20.394a20 20 0 0 0 10.077 17.364l36 20.572a20 20 0 0 0 19.846 0l36-20.572a20 20 0 0 0 10.077-17.364v-20.394h14a10 10 0 0 0 10-10v-20a10 10 0 0 0 -10-10z" fill="#ffd4cf"/><path d="m306.459 112h-100.918a20 20 0 0 1 -18.57-27.428l5.029-12.572h128l5.029 12.572a20 20 0 0 1 -18.57 27.428z" fill="#fa5d3f"/><path d="m120 384h272v104h-272z" fill="#fac850"/><path d="m392 384h-272l40-40h192z" fill="#f29a49"/><path d="m104 424h36a60 60 0 0 1 60 60v4a0 0 0 0 1 0 0h-96a0 0 0 0 1 0 0v-64a0 0 0 0 1 0 0z" fill="#ffd4cf"/><path d="m428 424h36a0 0 0 0 1 0 0v64a0 0 0 0 1 0 0h-56a0 0 0 0 1 0 0v-44a20 20 0 0 1 20-20z" fill="#25b1fa" transform="matrix(-1 0 0 -1 872 912)"/><path d="m312 424h96a0 0 0 0 1 0 0v4a60 60 0 0 1 -60 60h-36a0 0 0 0 1 0 0v-64a0 0 0 0 1 0 0z" fill="#ffd4cf" transform="matrix(-1 0 0 -1 720 912)"/><path d="m224 384h64v48h-64z" fill="#fa5d3f"/></g></svg>