<?xml version="1.0" encoding="UTF-8"?>
<!DOCTYPE svg PUBLIC "-//W3C//DTD SVG 1.1//EN" "http://www.w3.org/Graphics/SVG/1.1/DTD/svg11.dtd">
<!-- Creator: CorelDRAW -->
<svg xmlns="http://www.w3.org/2000/svg" xml:space="preserve" width="64px" height="64px" version="1.1" style="shape-rendering:geometricPrecision; text-rendering:geometricPrecision; image-rendering:optimizeQuality; fill-rule:evenodd; clip-rule:evenodd"
viewBox="0 0 512 512"
 xmlns:xlink="http://www.w3.org/1999/xlink">
 <defs>
  <style type="text/css">
   <![CDATA[
    .fil4 {fill:#1D81CE}
    .fil0 {fill:#4D4D4D}
    .fil1 {fill:#7ED63F}
    .fil2 {fill:#F3A766}
    .fil3 {fill:#FFE600}
   ]]>
  </style>
 </defs>
 <g id="Layer_x0020_1">
  <metadata id="CorelCorpID_0Corel-Layer"/>
  <path class="fil0" d="M165 307c-12,0 -23,-3 -32,-7l-17 45c-2,9 -9,7 -16,7 19,29 112,30 132,0 -8,0 -15,2 -17,-7l-17 -45c-10,4 -21,7 -33,7zm245 11c1,0 2,0 2,0 7,-37 48,-60 85,-40 2,1 4,4 3,6 -1,20 -12,38 -29,47 -9,4 -19,7 -28,7 -9,0 -17,-2 -25,-6 -1,0 -4,0 -8,2l0 56c0,10 -15,10 -15,0l0 -104c-3,-2 -6,-3 -8,-3 -9,4 -18,7 -27,7 -30,0 -56,-24 -57,-54 0,-3 1,-5 3,-7 36,-19 77,2 85,40 1,0 3,1 4,1l0 -62c-36,2 -66,-29 -59,-69 0,-3 3,-5 5,-6 19,-4 39,2 54,16 13,13 19,32 15,50l0 27c5,-3 10,-4 14,-5 7,-38 48,-60 84,-41 13,7 -7,61 -53,61 -9,0 -17,-2 -25,-6 -2,0 -11,0 -20,10l0 73zm16 2c24,10 54,-5 59,-32 -25,-10 -53,4 -59,32zm-108 -80c4,26 33,42 58,31 -5,-27 -34,-42 -58,-31zm120 -17c25,10 54,-6 59,-32 -24,-11 -53,4 -59,32zm-89 -77c-2,28 21,50 48,47 2,-28 -21,-49 -48,-47zm-91 312l3 -102c-5,-2 -9,-2 -14,-3 -15,47 -146,48 -162,1 -3,0 -5,1 -7,2l-3 102 183 0zm72 -54l11 60c1,5 -3,8 -7,8l-327 0c-5,0 -8,-4 -7,-8l11 -60c6,-29 31,-51 57,-61 12,-4 22,-6 35,-6l17 -45c-25,-18 -38,-50 -38,-81l0 -50 -54 0c-5,0 -8,-4 -8,-8l0 -27c0,-19 16,-34 34,-34l53 0 18 -48c2,-3 4,-4 7,-4l67 0c3,0 6,1 7,4l19 48 51 0c19,0 34,15 34,34l0 27c1,4 -2,8 -7,8l-54 0 0 53c0,30 -14,61 -38,78l17 45c5,0 9,1 12,1 40,3 82,23 90,66zm-55 -43l-2 97 52 0 -9 -51c-4,-19 -20,-36 -41,-46zm-215 97l3 -96c-19,10 -34,27 -37,45l-10 51 44 0zm137 -174c24,-15 37,-42 37,-70l0 -53 -137 0 0 50c0,39 24,81 69,81 12,0 22,-3 31,-8zm-75 -192l87 0 -15 -38 -57 0 -15 38zm-35 54c4,-1 169,0 209,0l0 -19c0,-11 -8,-20 -19,-20l-222 0c-11,0 -20,9 -20,20l0 19 52 0z"/>
  <path class="fil1" d="M318 240c4,26 33,42 58,31 -5,-27 -34,-42 -58,-31z"/>
  <path class="fil1" d="M349 146c-2,28 21,50 48,47 2,-28 -21,-49 -48,-47z"/>
  <path class="fil1" d="M497 191c-24,-11 -53,4 -59,32 25,10 54,-6 59,-32z"/>
  <path class="fil1" d="M485 288c-25,-10 -53,4 -59,32 24,10 54,-5 59,-32z"/>
  <path class="fil2" d="M197 284c24,-15 37,-42 37,-70l0 -53 -137 0 0 50c0,39 24,81 69,81 12,0 22,-3 31,-8z"/>
  <path class="fil3" d="M87 146c4,-1 169,0 209,0l0 -19c0,-11 -8,-20 -19,-20l-222 0c-11,0 -20,9 -20,20l0 19 52 0z"/>
  <polygon class="fil3" points="122,92 209,92 194,54 137,54 "/>
  <path class="fil2" d="M198 300c-10,4 -21,7 -33,7 -12,0 -23,-3 -32,-7l-17 45c-2,9 -9,7 -16,7 19,29 112,30 132,0 -8,0 -15,2 -17,-7l-17 -45z"/>
  <path class="fil4" d="M247 353c-15,47 -146,48 -162,1 -3,0 -5,1 -7,2l-3 102 183 0 3 -102c-5,-2 -9,-2 -14,-3z"/>
  <path class="fil4" d="M275 361l-2 97 52 0 -9 -51c-4,-19 -20,-36 -41,-46z"/>
  <path class="fil4" d="M60 458l3 -96c-19,10 -34,27 -37,45l-10 51 44 0z"/>
 </g>
</svg>
